<svg viewBox="0 0 211 211" xmlns="http://www.w3.org/2000/svg" xmlns:xlink="http://www.w3.org/1999/xlink" width="211.000000" height="211.000000" fill="none" customFrame="#000000">
	<path id="矢量 17" d="M51 0L160 0C188.167 0 211 22.8335 211 51L211 160C211 188.167 188.167 211 160 211L51 211C22.8335 211 0 188.167 0 160L0 51C0 22.8335 22.8335 0 51 0Z" fill="rgb(255,255,255)" fill-rule="evenodd" />
	<path id="矢量 17" d="M51.4586 167.567C49.9713 168.077 47.6738 168.128 44.1232 168.153C40.2307 168.185 36.2054 168.159 31.7813 168.185C27.6357 168.185 23.7053 168.217 20.9648 168.185C18.7939 168.153 17.3319 168.064 16.5977 167.745C14.9585 167.057 17.1483 164.764 17.7306 163.713C25.5408 152.451 45.7434 123.588 56.0853 108.644C56.8131 107.542 57.2688 106.746 57.4144 106.032C57.7182 104.299 56.3574 102.885 55.427 101.388C49.389 92.6932 32.1104 67.8817 21.9458 53.2751C20.8002 51.6317 19.7116 50.071 18.604 48.4785C16.5977 45.5546 15.3762 44.0131 16.4711 43.376C17.2876 42.8665 19.5661 42.8155 23.123 42.79C28.3699 42.7773 34.7054 42.7518 40.1042 42.7454C43.2118 42.7518 46.1295 42.6689 49.1042 42.8855C53.2118 42.9238 54.6042 46.1215 56.8004 49.1473C67.4524 64.7285 85.5601 90.0241 94.826 104.127C95.9336 106.217 94.4146 107.777 93.2817 109.567C85.9778 119.995 63.0347 152.986 54.8447 164.618C53.8701 165.949 53.0156 167.013 51.5093 167.542L51.446 167.561L51.4586 167.567Z" fill="rgb(255,255,255)" fill-rule="evenodd" />
	<path id="矢量 17" d="M51.4586 167.567C49.9713 168.077 47.6738 168.128 44.1232 168.153C40.2307 168.185 36.2054 168.159 31.7813 168.185C27.6357 168.185 23.7053 168.217 20.9648 168.185C18.7939 168.153 17.3319 168.064 16.5977 167.745C14.9585 167.057 17.1483 164.764 17.7306 163.713C25.5408 152.451 45.7434 123.588 56.0853 108.644C56.8131 107.542 57.2688 106.746 57.4144 106.032C57.7182 104.299 56.3574 102.885 55.427 101.388C49.389 92.6932 32.1104 67.8817 21.9458 53.2751C20.8002 51.6317 19.7116 50.071 18.604 48.4785C16.5977 45.5546 15.3762 44.0131 16.4711 43.376C17.2876 42.8665 19.5661 42.8155 23.123 42.79C28.3699 42.7773 34.7054 42.7518 40.1042 42.7454C43.2118 42.7518 46.1295 42.6689 49.1042 42.8855C53.2118 42.9238 54.6042 46.1215 56.8004 49.1473C67.4524 64.7285 85.5601 90.0241 94.826 104.127C95.9336 106.217 94.4146 107.777 93.2817 109.567C85.9778 119.995 63.0347 152.986 54.8447 164.618C53.8701 165.949 53.0156 167.013 51.5093 167.542L51.446 167.561L51.4586 167.567Z" fill="rgb(0,0,0)" fill-rule="evenodd" />
	<path id="矢量 17" d="M127.105 137.303C123.25 135.5 120.807 131.684 118.351 128.289C116.054 124.977 113.51 121.505 112.307 119.142C109.434 114.09 115.427 114.351 119.022 114.179C122.75 114.071 127.87 114.218 131.326 113.874C133.769 113.619 135.25 113.065 135.693 111.823C136.288 109.529 134.883 107 134.117 104.765C131.94 99.3882 128.681 91.553 126.44 86.0429C125.434 83.4566 124.25 80.7812 124.067 78.0675C123.674 74.857 126.389 70.7101 128.554 67.576C131.162 63.7922 134.408 59.1102 136.605 56.0526C137.662 54.7977 139.909 50.8419 141.358 51.9439C141.712 52.2369 142.041 52.8038 142.421 53.5682C149.997 70.4234 186.535 147.221 194.997 167.21C195.048 168.089 194.365 168.523 192.491 168.733C186.061 169.191 178.997 168.905 172.187 168.975C170.339 168.956 168.415 168.911 166.643 168.663C162.326 168.338 159.807 165.083 158.206 161.35C156.326 157.362 154.06 151.546 152.105 147.342C147.181 134.946 136.795 141.284 127.225 137.354L127.117 137.303L127.105 137.303Z" fill="rgb(255,255,255)" fill-rule="evenodd" />
	<path id="矢量 17" d="M127.105 137.303C123.25 135.5 120.807 131.684 118.351 128.289C116.054 124.977 113.51 121.505 112.307 119.142C109.434 114.09 115.427 114.351 119.022 114.179C122.75 114.071 127.87 114.218 131.326 113.874C133.769 113.619 135.25 113.065 135.693 111.823C136.288 109.529 134.883 107 134.117 104.765C131.94 99.3882 128.681 91.553 126.44 86.0429C125.434 83.4566 124.25 80.7812 124.067 78.0675C123.674 74.857 126.389 70.7101 128.554 67.576C131.162 63.7922 134.408 59.1102 136.605 56.0526C137.662 54.7977 139.909 50.8419 141.358 51.9439C141.712 52.2369 142.041 52.8038 142.421 53.5682C149.997 70.4234 186.535 147.221 194.997 167.21C195.048 168.089 194.365 168.523 192.491 168.733C186.061 169.191 178.997 168.905 172.187 168.975C170.339 168.956 168.415 168.911 166.643 168.663C162.326 168.338 159.807 165.083 158.206 161.35C156.326 157.362 154.06 151.546 152.105 147.342C147.181 134.946 136.795 141.284 127.225 137.354L127.117 137.303L127.105 137.303Z" fill="rgb(0,0,0)" fill-rule="evenodd" />
	<path id="矢量 17" d="M101.01 167.784C99.3766 166.917 98.0348 165.357 96.3196 163.006C93.3386 158.821 89.7247 153.515 86.674 149.132C80.0347 139.768 79.6613 138.768 86.4019 129.321C88.231 126.665 90.3006 123.665 92.1171 121.027C93.9589 118.365 95.5032 116.11 96.6931 114.702C98.5538 112.479 99.5728 112.396 101.035 114.103C109.029 125.117 127.927 152.712 136.44 164.917C137.098 166.07 138.244 167.338 137.301 168.236C136.738 168.663 135.453 168.822 133.446 168.898C130.94 168.981 127.25 168.956 123.181 168.975C118.434 168.975 113.87 169.007 109.586 168.994C105.655 168.969 103.06 168.867 101.092 167.822L101.01 167.777L101.01 167.784Z" fill="rgb(255,255,255)" fill-rule="evenodd" />
	<path id="矢量 17" d="M101.01 167.784C99.3766 166.917 98.0348 165.357 96.3196 163.006C93.3386 158.821 89.7247 153.515 86.674 149.132C80.0347 139.768 79.6613 138.768 86.4019 129.321C88.231 126.665 90.3006 123.665 92.1171 121.027C93.9589 118.365 95.5032 116.11 96.6931 114.702C98.5538 112.479 99.5728 112.396 101.035 114.103C109.029 125.117 127.927 152.712 136.44 164.917C137.098 166.07 138.244 167.338 137.301 168.236C136.738 168.663 135.453 168.822 133.446 168.898C130.94 168.981 127.25 168.956 123.181 168.975C118.434 168.975 113.87 169.007 109.586 168.994C105.655 168.969 103.06 168.867 101.092 167.822L101.01 167.777L101.01 167.784Z" fill="rgb(0,0,0)" fill-rule="evenodd" />
	<path id="矢量 17" d="M98.6551 97.7702C97.5222 97.5599 94.6677 93.3621 92.8639 90.7631C89.7057 86.0429 85.155 80.0677 82.5221 75.3475C80.1866 71.5063 82.4588 67.8945 84.7057 64.6585C87.5411 60.5116 91.788 54.4154 94.826 50.0328C96.345 47.918 97.8576 45.5993 99.826 44.0067C101.807 42.4843 103.674 42.2359 106.377 42.0766C108.668 41.9683 111.617 42.0066 114.972 42.0066C119.794 42.0129 125.611 42.0257 130.25 42.0448C132.421 42.2168 138.067 41.5797 137.611 43.7583C133.769 50.9438 127.111 59.0019 119.231 70.8184C115.212 76.5897 111.193 82.3673 107.883 87.1194C106.275 89.4318 104.725 91.6549 103.155 93.9099C101.155 96.7446 100.073 98.3371 98.7057 97.7765L98.6551 97.7574L98.6551 97.7702Z" fill="rgb(255,255,255)" fill-rule="evenodd" />
	<path id="矢量 17" d="M98.6551 97.7702C97.5222 97.5599 94.6677 93.3621 92.8639 90.7631C89.7057 86.0429 85.155 80.0677 82.5221 75.3475C80.1866 71.5063 82.4588 67.8945 84.7057 64.6585C87.5411 60.5116 91.788 54.4154 94.826 50.0328C96.345 47.918 97.8576 45.5993 99.826 44.0067C101.807 42.4843 103.674 42.2359 106.377 42.0766C108.668 41.9683 111.617 42.0066 114.972 42.0066C119.794 42.0129 125.611 42.0257 130.25 42.0448C132.421 42.2168 138.067 41.5797 137.611 43.7583C133.769 50.9438 127.111 59.0019 119.231 70.8184C115.212 76.5897 111.193 82.3673 107.883 87.1194C106.275 89.4318 104.725 91.6549 103.155 93.9099C101.155 96.7446 100.073 98.3371 98.7057 97.7765L98.6551 97.7574L98.6551 97.7702Z" fill="rgb(0,0,0)" fill-rule="evenodd" />
	<path id="矢量 17" d="M61.7106 191.737L57 200.679L60.5523 200.679L62.3423 196.832C62.5455 196.389 62.7469 195.933 62.9464 195.464C63.1459 194.994 63.3528 194.496 63.5671 193.969L63.6557 193.969C63.8996 194.496 64.1286 194.994 64.3429 195.464C64.5609 195.933 64.7715 196.389 64.9747 196.832L66.8589 200.679L70.583 200.679L65.8559 191.891L70.2782 183.309L66.7425 183.309L65.152 186.905C64.9747 187.305 64.7955 187.727 64.6145 188.17C64.4334 188.609 64.2376 189.099 64.027 189.641L63.9384 189.641C63.6871 189.099 63.4655 188.609 63.2734 188.17C63.0812 187.727 62.8836 187.305 62.6804 186.905L60.9957 183.309L57.266 183.309L61.7106 191.737Z" fill="rgb(255,255,255)" fill-rule="evenodd" />
	<path id="矢量 17" d="M61.7106 191.737L57 200.679L60.5523 200.679L62.3423 196.832C62.5455 196.389 62.7469 195.933 62.9464 195.464C63.1459 194.994 63.3528 194.496 63.5671 193.969L63.6557 193.969C63.8996 194.496 64.1286 194.994 64.3429 195.464C64.5609 195.933 64.7715 196.389 64.9747 196.832L66.8589 200.679L70.583 200.679L65.8559 191.891L70.2782 183.309L66.7425 183.309L65.152 186.905C64.9747 187.305 64.7955 187.727 64.6145 188.17C64.4334 188.609 64.2376 189.099 64.027 189.641L63.9384 189.641C63.6871 189.099 63.4655 188.609 63.2734 188.17C63.0812 187.727 62.8836 187.305 62.6804 186.905L60.9957 183.309L57.266 183.309L61.7106 191.737Z" fill="rgb(0,0,0)" fill-rule="evenodd" />
	<path id="矢量 17" d="M72.9726 183.309L72.9726 200.679L77.7552 200.679C79.4141 200.679 80.8494 200.357 82.0612 199.712C82.5327 199.46 82.9627 199.159 83.3513 198.81C83.9647 198.257 84.4749 197.583 84.882 196.786C85.5471 195.485 85.8795 193.863 85.8795 191.92C85.8795 189.958 85.5433 188.345 84.8709 187.082C84.5098 186.398 84.0656 185.807 83.5385 185.311C83.0896 184.889 82.5806 184.534 82.0114 184.248C80.7774 183.622 79.2977 183.309 77.5724 183.309L72.9726 183.309ZM77.3562 197.874L76.3254 197.874L76.3254 186.092L77.3562 186.092C78.4055 186.092 79.3125 186.282 80.0772 186.664C80.3142 186.782 80.5339 186.923 80.7365 187.087C81.1877 187.452 81.5535 187.929 81.834 188.519C82.2404 189.37 82.4436 190.504 82.4436 191.92C82.4436 193.321 82.2404 194.462 81.834 195.344C81.5413 195.976 81.1557 196.485 80.6771 196.872C80.4912 197.022 80.2912 197.154 80.0772 197.267C79.3125 197.672 78.4055 197.874 77.3562 197.874Z" fill="rgb(255,255,255)" fill-rule="evenodd" />
	<path id="矢量 17" d="M72.9726 183.309L72.9726 200.679L77.7552 200.679C79.4141 200.679 80.8494 200.357 82.0612 199.712C82.5327 199.46 82.9627 199.159 83.3513 198.81C83.9647 198.257 84.4749 197.583 84.882 196.786C85.5471 195.485 85.8795 193.863 85.8795 191.92C85.8795 189.958 85.5433 188.345 84.8709 187.082C84.5098 186.398 84.0656 185.807 83.5385 185.311C83.0896 184.889 82.5806 184.534 82.0114 184.248C80.7774 183.622 79.2977 183.309 77.5724 183.309L72.9726 183.309ZM77.3562 197.874L76.3254 197.874L76.3254 186.092L77.3562 186.092C78.4055 186.092 79.3125 186.282 80.0772 186.664C80.3142 186.782 80.5339 186.923 80.7365 187.087C81.1877 187.452 81.5535 187.929 81.834 188.519C82.2404 189.37 82.4436 190.504 82.4436 191.92C82.4436 193.321 82.2404 194.462 81.834 195.344C81.5413 195.976 81.1557 196.485 80.6771 196.872C80.4912 197.022 80.2912 197.154 80.0772 197.267C79.3125 197.672 78.4055 197.874 77.3562 197.874Z" fill="rgb(0,0,0)" fill-rule="evenodd" />
	<path id="矢量 17" d="M93.2704 200.521C94.129 200.84 95.0432 201 96.0131 201C97.114 201 98.1116 200.786 99.0056 200.359C99.0891 200.318 99.1718 200.276 99.2535 200.233C100.047 199.807 100.757 199.216 101.383 198.458L99.6042 196.288C99.3405 196.586 99.0546 196.852 98.7465 197.087C98.5365 197.247 98.3163 197.393 98.0857 197.525C98.0374 197.552 97.9885 197.578 97.9391 197.603C97.4067 197.871 96.8109 198.006 96.1516 198.006C95.4825 198.006 94.8787 197.869 94.34 197.595C94.1648 197.506 93.9965 197.402 93.8351 197.284C93.1812 196.803 92.6732 196.111 92.3111 195.206C91.9527 194.298 91.7736 193.214 91.7736 191.954C91.7736 190.706 91.9657 189.637 92.3499 188.748C92.7246 187.881 93.2346 187.21 93.8798 186.734C93.8962 186.722 93.9127 186.71 93.9293 186.698C94.1959 186.509 94.4762 186.358 94.7701 186.243C95.2174 186.07 95.6964 185.983 96.207 185.983C96.8462 185.983 97.417 186.116 97.9194 186.384C98.4219 186.651 98.8874 187.002 99.316 187.437L101.078 185.221C100.535 184.63 99.8462 184.113 99.0112 183.67C98.1762 183.223 97.223 183 96.1516 183C95.3394 183 94.5625 183.118 93.8209 183.354C93.5876 183.429 93.3577 183.515 93.1313 183.613C92.766 183.769 92.4176 183.954 92.0862 184.168C91.5629 184.504 91.0818 184.911 90.643 185.387C89.9263 186.166 89.3629 187.116 88.9528 188.239C88.5427 189.361 88.3376 190.635 88.3376 192.063C88.3376 193.506 88.5353 194.782 88.9306 195.893C89.3259 197.004 89.8764 197.941 90.5821 198.704C91.0489 199.207 91.5621 199.627 92.1218 199.966C92.4125 200.142 92.7158 200.296 93.0316 200.427C93.1107 200.46 93.1903 200.491 93.2704 200.521Z" fill="rgb(255,255,255)" fill-rule="evenodd" />
	<path id="矢量 17" d="M93.2704 200.521C94.129 200.84 95.0432 201 96.0131 201C97.114 201 98.1116 200.786 99.0056 200.359C99.0891 200.318 99.1718 200.276 99.2535 200.233C100.047 199.807 100.757 199.216 101.383 198.458L99.6042 196.288C99.3405 196.586 99.0546 196.852 98.7465 197.087C98.5365 197.247 98.3163 197.393 98.0857 197.525C98.0374 197.552 97.9885 197.578 97.9391 197.603C97.4067 197.871 96.8109 198.006 96.1516 198.006C95.4825 198.006 94.8787 197.869 94.34 197.595C94.1648 197.506 93.9965 197.402 93.8351 197.284C93.1812 196.803 92.6732 196.111 92.3111 195.206C91.9527 194.298 91.7736 193.214 91.7736 191.954C91.7736 190.706 91.9657 189.637 92.3499 188.748C92.7246 187.881 93.2346 187.21 93.8798 186.734C93.8962 186.722 93.9127 186.71 93.9293 186.698C94.1959 186.509 94.4762 186.358 94.7701 186.243C95.2174 186.07 95.6964 185.983 96.207 185.983C96.8462 185.983 97.417 186.116 97.9194 186.384C98.4219 186.651 98.8874 187.002 99.316 187.437L101.078 185.221C100.535 184.63 99.8462 184.113 99.0112 183.67C98.1762 183.223 97.223 183 96.1516 183C95.3394 183 94.5625 183.118 93.8209 183.354C93.5876 183.429 93.3577 183.515 93.1313 183.613C92.766 183.769 92.4176 183.954 92.0862 184.168C91.5629 184.504 91.0818 184.911 90.643 185.387C89.9263 186.166 89.3629 187.116 88.9528 188.239C88.5427 189.361 88.3376 190.635 88.3376 192.063C88.3376 193.506 88.5353 194.782 88.9306 195.893C89.3259 197.004 89.8764 197.941 90.5821 198.704C91.0489 199.207 91.5621 199.627 92.1218 199.966C92.4125 200.142 92.7158 200.296 93.0316 200.427C93.1107 200.46 93.1903 200.491 93.2704 200.521Z" fill="rgb(0,0,0)" fill-rule="evenodd" />
	<path id="矢量 17" d="M104.071 183.309L104.071 200.679L114.257 200.679L114.257 197.765L107.424 197.765L107.424 183.309L104.071 183.309Z" fill="rgb(255,255,255)" fill-rule="evenodd" />
	<path id="矢量 17" d="M104.071 183.309L104.071 200.679L114.257 200.679L114.257 197.765L107.424 197.765L107.424 183.309L104.071 183.309Z" fill="rgb(0,0,0)" fill-rule="evenodd" />
	<path id="矢量 17" d="M120.189 183.309L114.803 200.679L118.211 200.679L119.399 196.219L124.82 196.219L126.003 200.679L129.533 200.679L124.141 183.309L120.189 183.309ZM124.106 193.529L123.603 191.634C123.348 190.721 123.101 189.779 122.861 188.805C122.624 187.832 122.384 186.882 122.14 185.954L122.051 185.954C121.83 186.897 121.597 187.851 121.353 188.817C121.109 189.782 120.865 190.721 120.622 191.634L120.117 193.529L124.106 193.529Z" fill="rgb(255,255,255)" fill-rule="evenodd" />
	<path id="矢量 17" d="M120.189 183.309L114.803 200.679L118.211 200.679L119.399 196.219L124.82 196.219L126.003 200.679L129.533 200.679L124.141 183.309L120.189 183.309ZM124.106 193.529L123.603 191.634C123.348 190.721 123.101 189.779 122.861 188.805C122.624 187.832 122.384 186.882 122.14 185.954L122.051 185.954C121.83 186.897 121.597 187.851 121.353 188.817C121.109 189.782 120.865 190.721 120.622 191.634L120.117 193.529L124.106 193.529Z" fill="rgb(0,0,0)" fill-rule="evenodd" />
	<path id="矢量 17" d="M131.514 183.309L131.514 200.679L137.505 200.679C138.735 200.679 139.84 200.496 140.819 200.13C141.684 199.803 142.389 199.327 142.933 198.702C143.005 198.62 143.075 198.534 143.141 198.447C143.187 198.386 143.231 198.324 143.273 198.261C143.758 197.536 144 196.638 144 195.567C144 194.493 143.747 193.626 143.24 192.968C143.198 192.913 143.154 192.859 143.108 192.807C142.884 192.552 142.639 192.329 142.373 192.139C141.929 191.822 141.426 191.594 140.863 191.456L140.863 191.359C141.132 191.256 141.377 191.122 141.601 190.955C141.777 190.824 141.94 190.672 142.088 190.5C142.175 190.399 142.258 190.294 142.335 190.185C142.555 189.875 142.733 189.533 142.869 189.16C142.983 188.848 143.062 188.53 143.106 188.208C143.133 188.006 143.147 187.803 143.147 187.597C143.147 186.544 142.896 185.709 142.394 185.092C142.379 185.074 142.364 185.056 142.349 185.038C142.343 185.032 142.338 185.026 142.332 185.019C141.802 184.407 141.081 183.971 140.171 183.71C139.254 183.443 138.22 183.309 137.067 183.309L131.514 183.309ZM136.834 190.38L134.867 190.38L134.867 185.977L136.868 185.977C137.876 185.977 138.63 186.141 139.129 186.469C139.263 186.557 139.379 186.66 139.477 186.778C139.743 187.102 139.877 187.543 139.877 188.101C139.877 188.519 139.79 188.886 139.616 189.202C139.501 189.411 139.348 189.597 139.156 189.761C138.676 190.174 137.902 190.38 136.834 190.38ZM137.206 198.006L134.867 198.006L134.867 192.95L137.206 192.95C138.362 192.95 139.238 193.141 139.833 193.523C140.039 193.653 140.209 193.811 140.344 193.996C140.602 194.349 140.73 194.802 140.73 195.355C140.73 195.981 140.585 196.494 140.295 196.895C140.167 197.071 140.011 197.226 139.827 197.359C139.225 197.79 138.351 198.006 137.206 198.006Z" fill="rgb(255,255,255)" fill-rule="evenodd" />
	<path id="矢量 17" d="M131.514 183.309L131.514 200.679L137.505 200.679C138.735 200.679 139.84 200.496 140.819 200.13C141.684 199.803 142.389 199.327 142.933 198.702C143.005 198.62 143.075 198.534 143.141 198.447C143.187 198.386 143.231 198.324 143.273 198.261C143.758 197.536 144 196.638 144 195.567C144 194.493 143.747 193.626 143.24 192.968C143.198 192.913 143.154 192.859 143.108 192.807C142.884 192.552 142.639 192.329 142.373 192.139C141.929 191.822 141.426 191.594 140.863 191.456L140.863 191.359C141.132 191.256 141.377 191.122 141.601 190.955C141.777 190.824 141.94 190.672 142.088 190.5C142.175 190.399 142.258 190.294 142.335 190.185C142.555 189.875 142.733 189.533 142.869 189.16C142.983 188.848 143.062 188.53 143.106 188.208C143.133 188.006 143.147 187.803 143.147 187.597C143.147 186.544 142.896 185.709 142.394 185.092C142.379 185.074 142.364 185.056 142.349 185.038C142.343 185.032 142.338 185.026 142.332 185.019C141.802 184.407 141.081 183.971 140.171 183.71C139.254 183.443 138.22 183.309 137.067 183.309L131.514 183.309ZM136.834 190.38L134.867 190.38L134.867 185.977L136.868 185.977C137.876 185.977 138.63 186.141 139.129 186.469C139.263 186.557 139.379 186.66 139.477 186.778C139.743 187.102 139.877 187.543 139.877 188.101C139.877 188.519 139.79 188.886 139.616 189.202C139.501 189.411 139.348 189.597 139.156 189.761C138.676 190.174 137.902 190.38 136.834 190.38ZM137.206 198.006L134.867 198.006L134.867 192.95L137.206 192.95C138.362 192.95 139.238 193.141 139.833 193.523C140.039 193.653 140.209 193.811 140.344 193.996C140.602 194.349 140.73 194.802 140.73 195.355C140.73 195.981 140.585 196.494 140.295 196.895C140.167 197.071 140.011 197.226 139.827 197.359C139.225 197.79 138.351 198.006 137.206 198.006Z" fill="rgb(0,0,0)" fill-rule="evenodd" />
</svg>
